<?xml version="1.0" standalone="no"?><!DOCTYPE svg PUBLIC "-//W3C//DTD SVG 1.1//EN" "http://www.w3.org/Graphics/SVG/1.1/DTD/svg11.dtd"><svg t="1555306809525" class="icon" style="" viewBox="0 0 1268 1024" version="1.1" xmlns="http://www.w3.org/2000/svg" p-id="4272" xmlns:xlink="http://www.w3.org/1999/xlink" width="247.65625" height="200"><defs><style type="text/css"></style></defs><path d="M346.549597 525.230342h11.665463c3.129758 0 5.69047 2.560711 5.690469 5.690469s-2.560711 5.69047-5.690469 5.69047h-11.665463v11.665463c0 3.129758-2.560711 5.69047-5.974993 5.690469-3.129758 0-5.69047-2.560711-5.69047-5.690469v-11.665463h-11.665462c-3.129758 0-5.69047-2.560711-5.69047-5.69047s2.560711-5.69047 5.69047-5.690469h11.665462v-11.665463c0-3.129758 2.560711-5.69047 5.69047-5.690469s5.974993 2.560711 5.974993 5.690469v11.665463zM1116.470131 478.853015v-11.665463c0-3.129758-2.560711-5.69047-5.69047-5.690469s-5.69047 2.560711-5.974993 5.690469v11.665463h-11.665463c-3.129758 0-5.69047 2.560711-5.690469 5.690469s2.560711 5.69047 5.690469 5.69047h11.665463v11.665463c0 3.129758 2.560711 5.69047 5.974993 5.690469 3.129758 0 5.69047-2.560711 5.69047-5.690469v-11.665463h11.665462c3.129758 0 5.69047-2.560711 5.69047-5.69047s-2.560711-5.69047-5.69047-5.690469h-11.665462zM410.56738 851.578772v-11.665463c0-3.129758-2.560711-5.69047-5.69047-5.690469s-5.69047 2.560711-5.974993 5.690469v11.665463h-11.665462c-3.129758 0-5.69047 2.560711-5.69047 5.690469s2.560711 5.69047 5.69047 5.69047h11.665462v11.665463c0 3.129758 2.560711 5.69047 5.974993 5.690469 3.129758 0 5.69047-2.560711 5.69047-5.690469v-11.665463h11.665462c3.129758 0 5.69047-2.560711 5.69047-5.69047s-2.560711-5.69047-5.69047-5.690469h-11.665462zM407.722145 162.74743h17.355932c4.836899 0 8.820228 3.983329 8.820228 8.820228 0 4.836899-3.983329 8.820228-8.820228 8.820228h-17.355932v17.355932c0 4.836899-3.983329 8.820228-8.820228 8.820228-2.276188 0-4.552376-0.85357-6.259516-2.560712-1.707141-1.707141-2.560711-3.983329-2.560712-6.259516v-17.355932H372.725757c-2.276188 0-4.552376-0.85357-6.259516-2.560712-1.707141-1.707141-2.560711-3.983329-2.560712-6.259516 0-4.836899 3.983329-8.820228 8.820228-8.820228h17.355932v-17.355932c0-4.836899 3.983329-8.820228 8.820228-8.820228 4.836899 0 8.820228 3.983329 8.820228 8.820228v17.355932zM270.581828 658.956377c0-6.54404 5.405946-11.665463 11.665463-11.665463h69.992776c6.54404 0 11.665463 5.121423 11.665462 11.665463s-5.121423 11.665463-11.665462 11.665462H282.247291c-3.129758 0-5.974993-1.138094-8.251181-3.414281-1.991664-2.276188-3.414282-5.405946-3.414282-8.251181zM692.814671 670.337316H398.901917c-3.129758 0-5.974993-1.138094-8.251181-3.414282-2.276188-2.276188-3.414282-5.121423-3.414281-8.251181 0-6.54404 5.405946-11.665463 11.665462-11.665462h52.921367c-3.983329-7.113087-6.259517-15.079744-6.259516-23.046402V287.368714c0-12.23451 4.836899-24.184496 13.657127-32.720201 8.820228-8.820228 20.770214-13.657127 33.004723-13.657127h34.996388v-11.665462c0-12.23451 4.836899-24.184496 13.657127-32.7202 8.820228-8.820228 20.770214-13.657127 33.004724-13.657127h279.971103c12.23451 0 24.184496 4.836899 33.004723 13.657127 8.820228 8.820228 13.657127 20.48569 13.657127 32.7202v336.591275c0 8.251181-1.991664 16.217838-6.259516 23.046402H958.844123c6.54404-0.284523 11.949986 4.836899 11.949986 11.096416 0.284523 6.54404-4.836899 11.949986-11.096415 11.949986h-140.839122v11.665462c0 8.251181-1.991664 16.217838-6.259517 23.046402h6.259517c6.54404 0 11.665463 5.121423 11.665462 11.665463s-5.121423 11.665463-11.665462 11.665462h-61.457072c5.405946 9.104751 3.983329 20.770214-3.698805 28.167825-9.104751 9.104751-23.899972 9.104751-33.004723 0l-27.883301-27.883301z m42.678522-23.046402h36.988052c12.803557 0 23.330925-10.242845 23.330925-23.046402V286.799667c0-12.519033-9.958322-22.477355-22.477355-22.477355h-281.678244c-12.519033 0-22.477355 10.242845-22.477355 22.477355v337.160322c0 12.803557 10.527369 23.330925 23.330926 23.330925h177.258127l-5.974993-5.974993c-5.974993-5.974993-8.251181-14.510697-5.974993-22.477355l-11.096416-11.096415c-34.427341 25.32259-82.511809 20.201167-110.679633-11.949987-27.883301-32.151153-26.17616-80.520144 3.983329-110.395109 30.159489-30.159489 78.813004-31.86663 111.24868-3.983329 32.435677 27.883301 37.557099 75.967769 11.949986 110.110586l11.096416 11.096416c7.966657-2.276188 16.786885 0 22.477354 5.974993l38.695194 38.695193z m83.649902-58.04279h34.996388c12.803557 0 23.046402-10.527369 23.330925-23.330925V229.325924c0-12.803557-10.242845-23.330925-23.046401-23.330925h-280.255627c-12.803557 0-23.046402 10.527369-23.330925 23.330925v11.665462h221.64379c12.23451 0 24.184496 4.836899 33.004723 13.657127 8.820228 8.820228 13.657127 20.48569 13.657127 32.720201v301.87941z m-180.387885-5.405946c14.795221-14.510697 20.48569-36.134482 15.079744-56.051125-5.405946-20.201167-21.054737-35.565435-41.255904-40.971381-20.201167-5.405946-41.540428 0.284523-56.335649 15.079745-22.761878 22.477355-22.761878 59.180884-0.284524 81.658238l0.284524 0.284523c22.761878 22.761878 59.465407 22.761878 82.511809 0z m-122.914143-273.142539c0-6.54404 5.121423-11.665463 11.665463-11.665463h128.320089c6.54404 0 11.665463 5.121423 11.665462 11.665463s-5.121423 11.665463-11.665462 11.665462h-128.320089c-3.129758 0-5.974993-1.138094-8.251181-3.414281-2.276188-2.276188-3.414282-5.121423-3.414282-8.251181z m0 58.042789c0-6.54404 5.121423-11.665463 11.665463-11.665462H714.153932c6.54404 0 11.665463 5.121423 11.665462 11.665462s-5.121423 11.665463-11.665462 11.665463h-186.931926c-3.129758 0-5.974993-1.138094-8.251181-3.414282-1.991664-2.276188-3.414282-5.121423-3.129758-8.251181z m0 58.04279c0-6.54404 5.121423-11.665463 11.665463-11.665463h81.658238c6.54404 0 11.665463 5.121423 11.665463 11.665463s-5.121423 11.665463-11.665463 11.665463h-81.658238c-3.129758 0-5.974993-1.138094-8.251181-3.414282-2.276188-2.276188-3.698805-5.121423-3.414282-8.251181zM293.912754 357.076966c-12.519033 0-23.899972-6.54404-30.444013-17.355932-6.259517-10.811892-6.259517-24.184496 0-34.711865 6.259517-10.811892 17.924979-17.355932 30.444013-17.355932 19.347597 0 34.996388 15.648791 34.996387 34.711864s-15.648791 34.711864-34.996387 34.711865z m0-17.355932c6.259517 0 11.949986-3.414282 15.079744-8.820228 3.129758-5.405946 3.129758-11.949986 0-17.355932-3.129758-5.405946-8.820228-8.820228-15.079744-8.820228-9.673798 0-17.640456 7.682134-17.640456 17.355932 0.284523 9.673798 7.966657 17.640456 17.640456 17.640456zM1017.45596 279.971103c-15.079744 0-27.314254-12.23451-27.314254-27.314254s12.23451-27.314254 27.314254-27.314254 27.314254 12.23451 27.314254 27.314254-12.23451 27.314254-27.314254 27.314254z m0-13.657127c4.836899 0 9.389275-2.560711 11.949986-6.828563 2.560711-4.267852 2.560711-9.389275 0-13.657127s-7.113087-6.828563-11.949986-6.828564c-7.682134 0-13.657127 5.974993-13.657127 13.657127 0 7.39761 5.974993 13.657127 13.657127 13.657127zM935.513198 845.319255c-10.527369 0-19.347597-8.535704-19.347596-19.347596 0-10.527369 8.535704-19.347597 19.347596-19.347597 10.527369 0 19.347597 8.535704 19.347597 19.347597 0 10.527369-8.820228 19.347597-19.347597 19.347596z m0-9.673798c3.414282 0 6.54404-1.707141 8.251181-4.836899 1.707141-2.845235 1.707141-6.54404 0-9.673798-1.707141-2.845235-4.836899-4.836899-8.251181-4.836899-5.405946 0-9.673798 4.267852-9.673798 9.673798s4.267852 9.673798 9.673798 9.673798zM579.85885 769.920533c-13.94165 0-25.32259-11.380939-25.32259-25.322589s11.380939-25.32259 25.32259-25.32259 25.32259 11.380939 25.322589 25.32259-11.380939 25.32259-25.322589 25.322589z m0-12.803556c4.552376 0 8.820228-2.276188 11.096415-6.259517 2.276188-3.983329 2.276188-8.820228 0-12.519033-2.276188-3.983329-6.54404-6.259517-11.096415-6.259516-7.113087 0-12.803557 5.69047-12.803557 12.519033 0 7.113087 5.69047 12.519033 12.803557 12.519033zM536.611281 854.139483c-0.85357 1.422617-2.845235 2.276188-5.974993 2.560711-3.129758 0.284523-4.836899 0.284523-4.836899 0.284524v5.69047c-0.284523 0.569047-0.569047 1.138094-1.138094 1.422617-0.569047 0.284523-1.422617 0.569047-1.991665 0.569047-1.422617 0-2.276188-0.569047-2.560711-1.991664v-4.8369l-12.519033 1.991665c-0.85357 0.284523-1.707141 0-2.560711-0.853571s-0.85357-1.422617-0.853571-2.560711c0-0.85357 0.284523-1.422617 0.569047-1.991664 3.129758-0.85357 6.828563-1.422617 10.527369-1.991665 1.138094-0.284523 2.845235-0.284523 4.836899-0.569047v-5.121422h-11.949986c-1.138094 0-1.991664-0.85357-1.991664-2.560712 0-0.569047 0.284523-1.138094 0.569047-1.70714 1.422617-1.707141 2.560711-3.414282 3.983328-5.405947 0.284523-0.569047 0.85357-1.707141 1.422618-2.560711h-6.259517c-0.569047 0-1.138094-0.284523-1.422617-0.85357-0.284523-0.569047-0.569047-1.138094-0.569047-1.707141 0-1.707141 0.569047-2.845235 1.991664-3.129758h8.251181l2.276188-4.8369c0.569047-0.569047 1.422617-0.85357 1.991664-0.85357 0.569047 0 1.138094 0.284523 1.707141 0.85357 0.569047 0.569047 0.569047 1.422617 0.569047 2.276188 0 1.138094-0.569047 1.991664-1.422617 2.560712h16.786885c1.138094 0.85357 1.707141 1.707141 1.707141 2.845234 0 0.85357-0.284523 1.707141-1.138094 2.560712l-0.569047 0.569047H517.832731l-3.414281 6.259516 0.569047 0.569047h5.121422v-2.845235c0-0.569047 0.284523-1.138094 0.853571-1.422617 0.569047-0.284523 1.138094-0.569047 1.70714-0.569047 1.707141 0 2.845235 0.569047 3.129759 1.991664v2.845235h9.104751c0.569047 0.284523 1.138094 0.569047 1.422617 1.138094 0.284523 0.569047 0.569047 1.422617 0.569047 1.991664 0 1.422617-0.569047 2.276188-1.991664 2.560712h-9.104751v4.267852l9.104751-0.853571c1.138094 0.569047 1.707141 1.138094 1.707141 1.991665v1.422617z m26.17616 34.427341v-17.071409c-0.284523-1.138094-0.85357-1.991664-1.138094-2.845234-1.138094-1.991664-3.129758-3.129758-5.405946-3.414282h-39.548764c-1.138094 0.284523-1.991664 0.85357-2.845234 1.138094-1.991664 1.138094-3.129758 2.845235-3.414282 5.121422v17.071409c0.284523 1.138094 0.85357 1.991664 1.138094 2.845235 1.138094 1.991664 2.845235 3.129758 5.121422 3.414282h40.117811c1.138094-0.284523 1.991664-0.85357 2.845235-1.138094 1.707141-1.422617 2.845235-2.845235 3.129758-5.121423z m-46.661851-11.949986v-3.698805c0-0.569047 0.284523-1.138094 0.284524-1.138094 0.284523-0.284523 0.85357-0.569047 1.422617-0.569047h36.988053c0.569047 0 1.138094 0.284523 1.138093 0.284523 0.284523 0.284523 0.569047 0.85357 0.569047 1.422618v3.698805h-40.402334z m40.686858 10.527369c0 0.569047-0.284523 1.138094-0.284524 1.138094-0.284523 0.284523-0.85357 0.569047-1.422617 0.569047H517.832731c-0.569047 0-1.138094-0.284523-1.138094-0.284524-0.284523-0.284523-0.569047-0.85357-0.569047-1.422617v-4.836899h40.686858v4.836899zM569.046957 845.034732h-7.113086v17.071409c-0.85357 1.138094-1.707141 1.707141-2.845235 1.70714-0.85357 0-1.707141-0.284523-2.560712-1.138093l-0.569047-0.569047v-17.071409h-8.535704c-0.569047 3.983329-1.707141 7.966657-3.129758 12.234509-0.569047 1.422617-1.138094 3.129758-2.276188 5.405947-0.569047 1.138094-1.707141 1.707141-3.129758 1.70714-1.707141 0-2.560711-0.85357-2.560712-2.276187v-0.853571c1.707141-2.845235 2.845235-6.259517 3.983329-9.958322 0.284523-1.138094 0.85357-2.560711 1.138094-4.552375v-14.795221c0.284523-0.85357 0.569047-1.707141 1.422617-2.845235 0-0.284523 0.284523-0.284523 0.569047-0.569047l18.77855-2.845235c0.569047-0.569047 1.422617-0.85357 2.560711-0.85357s1.991664 0.284523 2.560712 0.85357 1.138094 1.422617 1.138094 2.276188c0 0.569047-0.284523 1.422617-0.569047 1.991664-2.845235 0.85357-6.259517 1.422617-9.958322 1.991665-1.138094 0.284523-2.560711 0.284523-4.267852 0.569047-1.707141 0-3.129758 0.284523-4.267853 0.569047-1.138094 0.284523-1.707141 0.85357-2.276187 1.991664v4.836899h21.623784c0.569047 0 1.138094 0.284523 1.422617 0.569047s0.569047 1.138094 0.569047 1.707141c0 0.85357-0.284523 1.422617-0.569047 1.991664 0 0.569047-0.569047 0.85357-1.138094 0.853571zM650.705196 877.185885c0 4.267852-0.284523 7.682134-0.853571 9.389275-0.85357 3.698805-2.845235 5.69047-5.974993 6.259516h-23.899972c-1.422617-0.569047-2.560711-1.138094-3.129758-2.560711-0.284523-0.284523-0.284523-1.138094-0.569047-1.707141v-35.849958h-5.69047c-0.85357 3.983329-1.422617 7.39761-2.276187 9.958322-0.284523 1.138094-0.569047 2.560711-1.138094 4.552375-2.845235 5.69047-5.69047 10.242845-8.251181 14.226174-3.698805 4.836899-7.39761 9.104751-11.665463 12.23451-0.569047 0.569047-1.138094 0.85357-1.707141 0.85357-0.85357 0-1.422617-0.284523-1.991664-0.85357-0.569047-0.569047-0.85357-1.422617-0.853571-2.276188 0-0.85357 0.284523-1.422617 0.853571-1.991664 5.974993-4.552376 10.811892-10.242845 14.795221-16.502362 3.983329-6.54404 6.259517-13.08808 7.39761-19.63212H586.118366c-0.569047 0-1.138094-0.284523-1.422617-0.853571-0.284523-0.569047-0.569047-1.138094-0.569047-1.707141 0-1.707141 0.569047-2.845235 1.991664-3.129758h20.201167l1.422618-16.217838h-17.640456c-0.85357 0-1.422617-0.284523-1.707141-0.853571 0-0.284523-0.284523-0.569047-0.284523-0.85357-0.284523-1.138094 0-2.276188 0.85357-2.845235 0.284523-0.284523 0.569047-0.569047 1.138094-0.85357h56.051125c1.138094 0.85357 1.707141 1.707141 1.707141 2.845235 0 0.85357-0.284523 1.707141-1.138094 2.560711l-0.569047 0.569047h-33.004723l-0.853571 16.217838h35.849959c1.138094 0.85357 1.707141 1.991664 1.70714 3.129758 0 1.138094-0.569047 1.991664-1.70714 2.560712h-25.32259v32.435676c0 0.85357 0.284523 1.422617 0.85357 1.707141 0.284523 0 0.569047 0.284523 0.853571 0.284524h16.786885c1.991664-0.284523 3.129758-1.422617 3.698805-3.983329 0.284523-1.991664 0.569047-3.983329 0.853571-6.259517 0.284523-0.569047 0.85357-0.85357 1.422617-1.138094 0.569047-0.284523 0.85357-0.569047 1.422618-0.569046 0.85357 0 1.422617 0.284523 2.276187 1.138093-0.569047-0.85357-0.569047-0.569047-0.284523-0.284523zM702.203946 871.210892H697.082523l-5.69047 11.096416 6.259517 2.845234c0.284523 0.569047 0.284523 1.138094 0.284523 1.707141 0 0.569047 0 1.422617-0.284523 2.276188 0 0.284523-0.284523 0.569047-0.284524 0.853571-0.284523 0-0.85357 0.284523-1.422617 0.284523-1.138094 0-2.276188-0.284523-3.414282-0.85357-1.707141-0.85357-3.698805-1.707141-5.405946-2.845235-3.983329 2.276188-8.535704 4.267852-13.657127 5.974993-1.707141 0.569047-3.983329 1.138094-6.54404 1.707141h-0.85357c-0.85357 0-1.707141-0.284523-2.276188-0.853571-0.569047-0.569047-0.85357-1.422617-0.853571-2.276188 0-1.138094 0.569047-1.991664 1.991665-2.276187 3.414282-0.284523 7.113087-1.422617 10.811892-2.845235 1.138094-0.569047 2.845235-1.138094 4.552376-1.991665-2.276188-0.569047-4.552376-1.422617-7.113087-2.560711-0.85357-0.284523-1.707141-0.85357-3.129759-1.707141 0-1.138094 0.569047-2.845235 1.707141-4.552375 1.138094-1.707141 1.991664-3.129758 1.991665-3.983329h-9.958322c-1.422617-0.284523-1.991664-0.85357-1.991664-2.276188s0.569047-2.560711 1.991664-2.845235h12.803556l1.422618-4.836899c0.569047-0.85357 1.138094-1.138094 1.707141-1.422617h1.707141c1.138094 0.284523 1.991664 0.85357 1.991664 1.991664 0 0.569047 0 1.138094-0.284524 1.422618 0 0.284523-0.569047 1.422617-1.138093 2.560711h19.63212c0.569047 0 1.138094 0 1.70714 0.569047 0.569047 0.569047 0.569047 1.138094 0.569047 1.991664 0 0.569047-0.284523 1.138094-0.569047 1.707141 0 1.138094-0.569047 1.138094-1.138093 1.138094z m-2.845235-17.071409c0.569047 0.284523 0.85357 1.138094 0.85357 1.991665 0 0.569047-0.284523 1.422617-0.569047 1.70714-0.284523 0.569047-0.85357 0.85357-1.422617 0.853571-0.284523 0-0.284523 0-0.853571-0.284524-1.991664-0.85357-3.983329-2.560711-6.259516-4.836899-2.845235-3.129758-4.836899-4.836899-5.69047-5.690469v8.535704c0 0.569047-0.284523 1.138094-0.85357 1.422617-0.569047 0.284523-1.138094 0.569047-1.707141 0.569047-0.569047 0-1.422617-0.284523-1.707141-0.569047s-0.85357-0.85357-0.85357-1.422617v-9.958322c-2.276188 3.414282-5.121423 6.828563-8.535705 10.527369l-4.267852 4.267852c-0.85357 1.138094-1.991664 1.422617-3.129758 1.422618-0.569047 0-1.138094-0.284523-1.707141-0.569047-0.284523-0.284523-0.569047-1.138094-0.569047-1.991665 4.836899-5.69047 9.958322-11.380939 14.795221-17.071408h-9.958322c-0.569047 0-1.138094-0.284523-1.707141-0.853571s-0.569047-1.138094-0.569047-1.707141c0-0.85357 0.284523-1.422617 0.569047-1.991664 0.284523-0.569047 0.85357-0.85357 1.707141-0.853571h13.372604v-12.803556c0.85357-1.422617 1.707141-1.991664 2.845234-1.991664s1.707141 0.569047 2.276188 1.991664v12.803556h4.267852l-1.422617-1.991664c0-1.138094 0.569047-2.560711 1.422617-3.983329 1.422617-1.991664 2.276188-3.414282 2.276188-3.698805 0.85357-1.138094 1.138094-1.707141 1.422618-1.991664 0.85357-0.85357 1.422617-1.138094 2.276188-1.138094 0.569047 0 1.138094 0.284523 1.70714 0.85357 0.284523 0.569047 0.284523 1.138094 0.284524 1.991665 0 1.991664-0.85357 3.983329-2.845235 6.54404-0.85357 1.138094-1.707141 2.276188-2.845235 3.414281h5.69047c0.569047 0 1.138094 0.284523 1.707141 0.853571 0.284523 0.569047 0.569047 1.138094 0.569047 1.707141 0 1.707141-0.85357 2.560711-2.276188 2.560711h-9.673798c1.991664 2.560711 4.552376 5.121423 7.113087 7.682134 1.422617 1.422617 2.560711 2.276188 4.267852 3.698805z m-21.623785-19.63212c-0.284523 1.138094-0.85357 1.707141-2.276187 1.707141-0.569047 0-1.138094 0-1.991665-0.284523-0.85357-0.284523-1.422617-0.569047-1.707141-0.853571-1.138094-1.138094-2.560711-1.991664-3.698805-3.129758-1.422617-1.422617-2.276188-2.845235-2.276188-4.267852 0.284523-0.569047 0.85357-0.85357 1.422618-1.138094s1.138094-0.284523 1.422617-0.284524h1.138094c2.276188 1.707141 3.698805 2.845235 4.836899 3.698805 1.707141 1.422617 2.845235 3.129758 3.129758 4.552376z m13.372604 36.703529H680.011114l-2.276188 5.121423 8.251181 3.414281 3.698805-5.690469 1.422618-2.845235z m38.695193 19.63212c0.284523 0.284523 0.569047 0.85357 0.569047 1.422617s-0.284523 1.138094-0.853571 1.707141c-0.569047 0.284523-1.138094 0.569047-1.991664 0.569047-0.569047 0-1.138094-0.284523-1.707141-0.569047-3.414282-2.276188-6.828563-4.836899-9.958321-7.966657l-1.991665-1.991665-11.949986 11.096416c-0.569047 1.138094-1.707141 1.707141-3.129758 1.707141-0.85357 0-1.422617-0.284523-1.991665-0.569047-0.569047-0.569047-0.85357-1.138094-0.85357-1.991664l15.364268-15.648792c-2.276188-4.836899-4.267852-10.242845-5.121423-15.933314-0.284523-1.991664-0.569047-4.552376-0.85357-7.397611v-6.259516l-1.422618 2.276187c-0.569047 0.85357-1.422617 1.138094-2.276187 1.138094-0.569047 0-1.138094-0.284523-1.707141-0.569047-0.284523-0.284523-0.569047-1.138094-0.284524-1.991664 2.560711-6.259517 3.983329-10.242845 4.836899-11.665463 1.422617-4.267852 2.560711-8.251181 2.845235-11.665462v-2.276188c0-0.569047 0.284523-1.138094 0.569047-1.422617 0.284523-0.284523 0.85357-0.569047 1.707141-0.569047s1.422617 0.284523 1.707141 0.569047c0.569047 0.284523 0.85357 0.85357 0.85357 1.422617v3.698805l-1.422617 6.259517h17.640456c0.569047 0 1.138094 0.284523 1.422617 0.85357s0.569047 1.138094 0.569047 1.707141c0 1.707141-0.569047 2.845235-1.991664 3.129758h-4.8369v11.096416c-0.569047 6.259517-1.707141 12.519033-3.414281 19.347596-0.569047 2.276188-1.422617 5.121423-2.276188 8.820228 2.276188 2.845235 4.836899 5.69047 8.251181 8.535705 0.569047 0.569047 1.991664 1.707141 3.698805 3.129758z m-11.949986-39.548764v-11.380939h-8.535704c-0.569047 1.138094-1.138094 2.276188-1.422618 3.129759 0 0.284523-0.284523 0.85357-0.284523 1.422617 1.138094 0.85357 1.991664 1.991664 2.276187 3.698805 0 0.569047 0.284523 1.138094 0.284524 2.276188v3.698805c0.284523 4.267852 1.138094 8.535704 2.560711 12.803557 0.284523 1.422617 1.138094 3.414282 1.707141 5.690469 1.138094-3.129758 1.991664-6.54404 2.845235-10.811892 0.284523-1.422617 0.284523-3.129758 0.569047-5.121423v-5.405946zM763.09197 857.838288l-7.682134 5.121423v27.314254c-0.284523 1.422617-1.138094 2.845235-2.845235 3.698805-1.422617 0.85357-3.129758 1.138094-4.836899 1.138094h-3.414282c-1.138094 0-1.991664-0.569047-2.560711-1.422617-0.284523-0.284523-0.284523-0.85357-0.284523-1.422618 0.284523-1.138094 1.991664-1.991664 4.267852-2.560711 2.560711-0.284523 3.698805-1.707141 3.698805-3.698805v-20.201167l-6.828563 3.698805c-0.85357 0.284523-1.422617 0-1.991665-0.569047-0.284523-0.569047-0.569047-1.138094-0.569047-1.991664 0-0.85357 0.284523-1.422617 0.569047-2.276188l8.535705-5.121423v-16.786885h-6.259517c-1.138094-0.569047-1.707141-1.422617-1.707141-2.560711 0-0.85357 0.284523-1.707141 1.138094-2.276188l0.569047-0.569047h6.259517v-12.803557c0-0.85357 0.569047-1.422617 1.138093-1.70714 0.569047-0.569047 1.422617-0.569047 1.991665-0.569047 0.85357 0 1.422617 0.284523 1.991664 0.569047s0.569047 1.138094 0.569047 1.70714v12.803557h6.259517c0.569047 0 1.138094 0.284523 1.707141 0.85357 0.284523 0.569047 0.569047 1.138094 0.569046 1.707141 0 1.707141-0.85357 2.560711-2.276187 2.560712h-6.259517v13.372603l4.267852-3.414282c0.569047-0.284523 1.138094-0.569047 1.707141-0.569047 0.569047 0 1.138094 0.284523 1.707141 0.853571s0.569047 1.422617 0.569047 2.276188c0.569047 1.707141 0.569047 2.276188 0 2.845234z m44.95471-1.70714c0.569047 0 1.138094 0.284523 1.422617 0.85357 0.284523 0.569047 0.569047 1.138094 0.569047 1.707141 0 0.85357-0.284523 1.422617-0.569047 1.991664-0.284523 0.569047-1.138094 0.85357-1.991664 0.569047H790.975271v8.535705h11.949986c1.138094 0.284523 1.707141 1.138094 2.276188 1.991664 0.284523 0.284523 0.284523 0.85357 0.569047 1.422617v15.648792l-0.569047 1.991664c-0.284523 1.138094-0.85357 1.707141-1.991665 2.276188-1.138094 0.284523-2.276188 0.85357-3.129758 1.138094h-21.054737c-1.707141-0.284523-3.129758-0.85357-4.552376-2.276188-0.284523-0.284523-0.85357-1.138094-1.138094-1.991664v-16.786886c0.284523-1.138094 0.85357-1.991664 1.991665-2.845235 0.284523-0.284523 0.85357-0.284523 1.70714-0.569046h8.251181v-8.535705h-13.94165c0 5.974993-0.85357 11.380939-2.276188 16.786885-1.707141 5.974993-4.267852 10.811892-7.682134 15.364268-0.284523 0.569047-0.85357 0.85357-1.707141 0.853571s-1.422617-0.284523-1.991664-1.138094c-0.569047-0.569047-0.85357-1.422617-0.569047-2.276188 2.276188-3.698805 3.983329-7.682134 5.69047-12.519033 1.138094-3.414282 1.991664-6.828563 2.560711-10.242845 0.284523-1.422617 0.284523-2.845235 0.569047-4.267853v-33.858294c0.284523-1.422617 0.85357-2.560711 1.707141-3.414281 0.284523-0.284523 0.85357-0.569047 1.422617-0.853571h33.858294c1.138094 0.284523 1.707141 1.138094 2.276188 2.276188 0.284523 0.284523 0.284523 0.85357 0.569047 1.707141v13.372604c-0.284523 1.138094-0.85357 2.276188-1.707141 2.845234-0.284523 0.284523-0.569047 0.569047-1.138094 0.853571H790.975271v9.104751h17.071409z m-7.966658-16.502362v-5.69047c-0.284523-0.85357-0.569047-1.422617-1.422617-2.276188-0.284523-0.284523-0.569047-0.569047-1.138094-0.85357h-24.753543c-0.569047 0.284523-1.138094 0.569047-1.422617 1.138094 0 0.284523-0.284523 0.284523-0.284524 0.85357v8.251181h27.314254c0.569047 0 1.138094-0.284523 1.422618-0.85357l0.284523-0.569047z m-14.795221 16.502362v-9.104752h-13.94165v9.104752h13.94165z m14.795221 30.444012v-8.251181c-0.284523-1.138094-0.85357-1.991664-1.707141-2.845235-0.284523 0-0.284523-0.284523-0.85357-0.569047h-17.640456l-1.991664 1.991664v9.104752c0.284523 0.85357 1.138094 1.422617 1.707141 1.991664 0.284523 0.284523 0.569047 0.284523 1.138094 0.569047h17.071408c0.85357 0 1.422617-0.284523 1.707141-0.85357 0.284523-0.284523 0.284523-0.569047 0.569047-1.138094zM835.360934 838.206168c0 1.138094-0.569047 5.121423-1.422618 11.949986-0.85357 6.828563-1.991664 13.08808-2.845235 18.77855-0.569047 3.129758-1.138094 6.259517-1.70714 9.104751-0.569047-2.845235-1.138094-5.974993-1.707141-8.820227-0.85357-4.552376-1.707141-10.527369-2.845235-17.92498-1.138094-7.39761-1.707141-11.665463-1.707141-12.803556 0-1.422617 0.569047-2.560711 1.707141-3.414282s2.560711-1.138094 3.983329-1.138094c1.707141 0 3.129758 0.284523 4.552375 1.138094 1.422617 0.85357 1.991664 1.991664 1.991665 3.129758z m-5.69047 55.197555c-1.707141 0-3.129758-0.569047-4.267852-1.707141-1.138094-1.138094-1.707141-2.560711-1.707141-3.983328s0.569047-2.845235 1.422617-3.983329c0.85357-1.138094 2.276188-1.707141 3.983329-1.707141 1.707141 0 3.129758 0.569047 4.267852 1.707141 1.138094 1.138094 1.422617 2.560711 1.422618 4.267852 0 1.422617-0.569047 2.845235-1.422618 3.983329-0.569047 0.85357-1.991664 1.422617-3.698805 1.422617z" fill="#DFE5F5" p-id="4273"></path></svg>